<svg xmlns="http://www.w3.org/2000/svg" viewBox="0 0 24 24" role="img" aria-labelledby="github-title">
  <title id="github-title">Github</title>
  <style>
  .frame{fill:color-mix(in srgb,currentColor 7%,transparent);stroke:currentColor;stroke-width:1.45;opacity:.98}
  .main{fill:none;stroke:currentColor;stroke-width:1.75;stroke-linecap:round;stroke-linejoin:round}
  .accent{fill:none;stroke:var(--icon-accent,#d7b56d);stroke-width:1.75;stroke-linecap:round;stroke-linejoin:round}
  .dot{fill:var(--icon-accent,#d7b56d)}
  .fill{fill:currentColor}
</style>
  <circle class="frame" cx="12" cy="12" r="9"/><path class="main" d="M9.2 19v-2.6c-2.7.6-3.2-1.1-3.2-1.1-.4-1-.9-1.3-.9-1.3-.8-.5.1-.5.1-.5.8.1 1.3.9 1.3.9.8 1.3 2 .9 2.6.7.1-.6.3-1 .6-1.2-2.2-.2-4.5-1.1-4.5-4.8 0-1 .4-1.9 1-2.6-.1-.3-.4-1.3.1-2.6 0 0 .8-.3 2.7 1a9 9 0 0 1 5 0c1.9-1.3 2.7-1 2.7-1 .5 1.3.2 2.3.1 2.6.6.7 1 1.6 1 2.6 0 3.7-2.3 4.6-4.5 4.8.4.3.7.9.7 1.8V19"/><path class="accent" d="M9 20h6"/>
</svg>
