<svg xmlns="http://www.w3.org/2000/svg" viewBox="0 0 24 24" role="img" aria-labelledby="python-title">
  <title id="python-title">Python</title>
  <style>
  .frame{fill:color-mix(in srgb,currentColor 7%,transparent);stroke:currentColor;stroke-width:1.45;opacity:.98}
  .main{fill:none;stroke:currentColor;stroke-width:1.75;stroke-linecap:round;stroke-linejoin:round}
  .accent{fill:none;stroke:var(--icon-accent,#d7b56d);stroke-width:1.75;stroke-linecap:round;stroke-linejoin:round}
  .dot{fill:var(--icon-accent,#d7b56d)}
  .fill{fill:currentColor}
</style>
  <path class="frame" d="M9 4h6a3 3 0 0 1 3 3v4H9a3 3 0 0 0-3 3v1H4V9a3 3 0 0 1 3-3h2z"/><path class="frame" d="M15 20H9a3 3 0 0 1-3-3v-4h9a3 3 0 0 0 3-3V9h2v6a3 3 0 0 1-3 3h-2z"/><circle class="dot" cx="9" cy="7" r=".8"/><circle class="dot" cx="15" cy="17" r=".8"/>
</svg>
