<?xml version="1.0" encoding="UTF-8"?>
<svg id="Calque_1" data-name="Calque 1" xmlns="http://www.w3.org/2000/svg" viewBox="0 0 233.43 84.43">
  <g>
    <path d="M13.11,17.7v37.05c-2.04.07-4.5.21-7.38.42v-.63c3-.82,4.5-4,4.5-9.53v-18.32c0-4.87-1.5-7.8-4.5-8.79v-.63c2.44.23,4.9.38,7.38.42ZM15.71,54.76V17.7l6.01-.42c2.98,0,5.34.93,7.1,2.78,1.73,1.88,2.6,4.25,2.6,7.14,0,3.61-1.57,6.21-4.71,7.8,5.06,1.15,7.59,4.44,7.59,9.88,0,2.74-.83,5.15-2.5,7.21-1.69,2.06-4.41,3.09-8.16,3.09-1.38,0-2.88-.08-4.5-.25-1.45-.12-2.6-.18-3.45-.18ZM18.59,27.3v7.07h2.71c2.25,0,3.98-.61,5.2-1.83s1.83-2.98,1.83-5.27-.66-4.17-1.97-5.41c-1.31-1.22-2.88-1.83-4.71-1.83-1.01,0-1.82.25-2.43.74-.42,1.27-.63,3.45-.63,6.54ZM22.11,36.86h-3.52v6.33c0,4.43.48,7.23,1.44,8.4.82.63,2.05.95,3.69.95,2.74,0,4.7-.8,5.87-2.39,1.12-1.59,1.69-3.46,1.69-5.59,0-1.71-.36-3.18-1.09-4.39-.75-1.24-1.69-2.11-2.81-2.6-1.2-.47-2.95-.7-5.27-.7ZM31.91,33.87c1.43-1.88,2.14-4.1,2.14-6.68,0-2.04-.4-3.87-1.2-5.48-.82-1.66-1.77-2.78-2.85-3.34,2.32.49,4.1,1.49,5.34,2.99,1.24,1.52,1.86,3.21,1.86,5.06,0,1.64-.52,3.19-1.55,4.64-1.03,1.41-2.29,2.34-3.76,2.81ZM33.67,53.77c2.16-2.27,3.23-5.18,3.23-8.72,0-3.8-1.12-6.87-3.38-9.21,4.45,1.62,6.68,4.59,6.68,8.93,0,2.13-.62,4.03-1.86,5.7-1.24,1.66-2.8,2.77-4.68,3.3Z" style="fill: #571845; stroke-width: 0px;"/>
    <path d="M54.27,17.7h1.16v37.05h-2.32c-.82,0-2.55.14-5.2.42v-.63c1.27-.33,2.23-.93,2.88-1.79.68-.89,1.14-1.91,1.37-3.06.26-1.22.39-3.8.39-7.73v-14.73c0-3.4-.46-5.73-1.37-7s-2-2.04-3.27-2.32v-.63c1.43.09,3.55.23,6.36.42ZM72.03,54.76h-14.06V17.7h10.23c1.92,0,5.55-.14,10.9-.42-.05.7-.07,1.23-.07,1.58,0,.47.06,1.56.18,3.27.07,1.15.11,1.77.11,1.86v.88h-.6c-.84-2.02-1.81-3.32-2.88-3.9-1.08-.56-3.11-.84-6.08-.84h-5.59c-.89,0-1.71.06-2.46.18-.42.8-.67,2.7-.74,5.7l-.07,2.39v5.73h7.59c2.86,0,4.76-.25,5.7-.74.94-.49,1.69-1.66,2.25-3.52h.77c-.19,2.11-.28,3.94-.28,5.48,0,.98.07,2.27.21,3.87.05.47.11,1.39.18,2.78h-.77c-.21-2.06-.83-3.48-1.86-4.25-1.05-.77-2.71-1.16-4.96-1.16h-8.82v7.66c0,2.95.16,5.54.49,7.77.98.14,2.04.21,3.16.21h5.34c2.91,0,5.1-.33,6.57-.98,1.55-.68,3.07-2.19,4.57-4.54h.7c-.26,1.08-.65,2.32-1.16,3.73-.63,1.83-1.09,3.41-1.37,4.75-2.67-.28-5.06-.42-7.17-.42Z" style="fill: #571845; stroke-width: 0px;"/>
    <path d="M89.15,17.28l7.42.42v37.05h-2.18c-1.34,0-3.08.14-5.24.42v-.63c1.73-.68,2.92-1.77,3.55-3.27.63-1.52.95-3.96.95-7.31v-16.8c0-3.59-.47-5.95-1.41-7.1-.96-1.17-1.99-1.89-3.09-2.14v-.63ZM115.38,54.76h-16.28V17.7c1.59-.05,3.38-.14,5.34-.28,1.83-.09,2.67-.14,2.53-.14v.63c-1.8.47-3.08,1.39-3.83,2.78-.75,1.43-1.12,3.55-1.12,6.36v15.29c0,2.3.12,4.35.35,6.15.21,1.9.46,2.99.74,3.27.26.28.94.42,2.04.42h7.38c2.6,0,4.76-.41,6.47-1.23,1.71-.82,3.21-2.44,4.5-4.85h.7c-.16,1.12-.69,2.91-1.58,5.34-.59,1.55-.96,2.79-1.12,3.73-1.9-.28-3.94-.42-6.12-.42Z" style="fill: #571845; stroke-width: 0px;"/>
    <path d="M130.42,17.28l7.42.42v37.05h-2.18c-1.34,0-3.08.14-5.24.42v-.63c1.73-.68,2.92-1.77,3.55-3.27.63-1.52.95-3.96.95-7.31v-16.8c0-3.59-.47-5.95-1.41-7.1-.96-1.17-1.99-1.89-3.09-2.14v-.63ZM156.65,54.76h-16.28V17.7c1.59-.05,3.38-.14,5.34-.28,1.83-.09,2.67-.14,2.53-.14v.63c-1.8.47-3.08,1.39-3.83,2.78-.75,1.43-1.12,3.55-1.12,6.36v15.29c0,2.3.12,4.35.35,6.15.21,1.9.46,2.99.74,3.27.26.28.94.42,2.04.42h7.38c2.6,0,4.76-.41,6.47-1.23,1.71-.82,3.21-2.44,4.5-4.85h.7c-.16,1.12-.69,2.91-1.58,5.34-.59,1.55-.96,2.79-1.12,3.73-1.9-.28-3.94-.42-6.12-.42Z" style="fill: #571845; stroke-width: 0px;"/>
    <path d="M171.24,50.54l1.76-1.79,5.06,4.99-1.76,1.79-5.06-4.99ZM174.51,47.27l1.76-1.79,5.06,4.99-1.76,1.79-5.06-4.99Z" style="fill: #571845; stroke-width: 0px;"/>
    <path d="M189.91,42.56h.81c.16,3,1.37,5.47,3.62,7.42,2.2,1.92,4.73,2.88,7.59,2.88,2.2,0,4-.62,5.38-1.86,1.38-1.24,2.07-2.73,2.07-4.46,0-1.83-.67-3.25-2-4.25-1.29-.98-3.83-2.1-7.63-3.34-3.05-1.01-5.21-1.84-6.5-2.5-1.5-.77-2.67-1.82-3.52-3.13-.91-1.34-1.37-2.84-1.37-4.5,0-1.85.62-3.67,1.86-5.45-.28.91-.42,1.71-.42,2.39,0,1.83.43,3.43,1.3,4.82.89,1.43,1.99,2.51,3.3,3.23,1.31.75,3.5,1.61,6.57,2.57,4.01,1.22,6.9,2.57,8.68,4.04,1.71,1.43,2.57,3.35,2.57,5.77s-.89,4.51-2.67,6.43c-1.8,1.95-4.5,2.92-8.09,2.92-1.45,0-3.47-.27-6.05-.81-2.25-.47-3.94-.71-5.06-.74l-.25-.28c.02-.4.04-.91.04-1.55,0-.75-.07-1.91-.21-3.48-.12-1.57-.18-2.74-.18-3.52,0-1.01.05-1.88.14-2.6ZM214.73,27.86h-.74c-.02-2.72-1.1-4.73-3.23-6.05-2.09-1.29-4.62-1.93-7.59-1.93-2.37,0-4.31.5-5.84,1.51-1.55,1.01-2.32,2.21-2.32,3.62,0,1.5.61,2.68,1.83,3.55,1.27.94,3.76,2.05,7.49,3.34,3.47,1.2,5.89,2.17,7.28,2.92,1.48.82,2.71,1.99,3.69,3.52.98,1.57,1.48,3.32,1.48,5.24,0,2.93-1.08,5.23-3.23,6.89.8-1.1,1.2-2.65,1.2-4.64,0-1.88-.43-3.54-1.3-4.99-.91-1.48-2.04-2.65-3.38-3.52-1.36-.89-3.57-1.84-6.64-2.85-4.62-1.52-7.63-2.82-9.04-3.9-1.41-1.1-2.11-2.81-2.11-5.13,0-2.67,1.08-4.77,3.23-6.29,2.16-1.48,5.21-2.21,9.18-2.21,2.7,0,5.99.47,9.88,1.41v.25l.07,1.34c0,.7.02,1.55.07,2.53.07,1.2.11,2.25.11,3.16,0,.61-.02,1.36-.07,2.25Z" style="fill: #571845; stroke-width: 0px;"/>
  </g>
  <g>
    <rect x="4.55" y="60.15" width="211.42" height="24.28" style="fill: #571845; stroke-width: 0px;"/>
    <g>
      <path d="M9.77,74.13l-.5.06c.55-1.41,1.02-2.48,1.4-3.21.18-.23.37-.46.59-.69s.48-.49.79-.78c.69-.64,1.15-1.1,1.38-1.37.67-.09,1.18-.13,1.54-.13,1.29,0,2.71.46,4.23,1.37,1.52.91,2.28,2,2.28,3.26,0,1.74-1.01,3.29-3.04,4.65-2.03,1.36-4.3,2.04-6.81,2.04-1.08,0-2.02-.13-2.82-.38-.8-.25-1.44-.57-1.9-.98-.47-.4-.9-.94-1.3-1.62.8-.65,1.33-1.06,1.61-1.25,1.1.72,2.03,1.07,2.81,1.07.36,0,.73-.09,1.1-.26.36-.17.85-.58,1.47-1.22.58-.6,1.77-1.89,3.59-3.87-.89-.45-1.77-.67-2.63-.67-.24,0-.57.02-1,.06-.13.14-1.05,1.46-2.78,3.95ZM11.25,76.97c1.17.38,2.2.56,3.09.56s1.78-.14,2.7-.42c.92-.28,1.57-.66,1.96-1.15.39-.49.59-.95.59-1.38,0-.47-.25-1.06-.74-1.79-.5-.73-1.24-1.34-2.23-1.83-.21.38-.49.83-.85,1.34s-.77,1.03-1.22,1.58c-.45.55-.95,1.09-1.5,1.61s-1.15,1.02-1.8,1.48Z" style="fill: #ff7e5f; stroke-width: 0px;"/>
      <path d="M22.5,72.26l1.43-1.21,1.71.13c.55.05.94.18,1.17.41.24.24.36.49.36.77,0,.12-.02.28-.05.48-.05.23-.1.57-.15,1.02-.58.3-1.02.48-1.32.53-.3.05-.6.08-.88.08-.11,0-.24-.01-.39-.03.41.52.82.77,1.21.77.47,0,.88-.17,1.26-.53h.05c-.42,1.32-1.21,1.98-2.35,1.98-.59,0-1.02-.08-1.29-.25-.27-.17-.47-.4-.61-.72-.14-.3-.22-.88-.22-1.73l.03-1.08.04-.62ZM26.55,68.35l-2.24,2.06-.55-.25,1.02-1.73,1.76-.08ZM24.42,72.32l-.17,1.55c.37,0,.76-.01,1.19-.04,0-.28.01-.41.01-.4,0-.36-.1-.63-.29-.81-.19-.19-.44-.29-.75-.3Z" style="fill: #ff7e5f; stroke-width: 0px;"/>
      <path d="M28.53,70.91c.66.08,1.11.27,1.36.57.25.31.54,1.1.88,2.35.14.49.26.89.38,1.22.44-1.06.65-1.84.65-2.33,0-.32-.18-.6-.55-.83.33-.14.82-.39,1.48-.74.58.33.87.7.87,1.11,0,.22-.03.46-.08.72-.06.26-.11.44-.17.55-.06.11-.22.28-.48.53-.26.25-.62.58-1.09.99-.04.08-.19.46-.46,1.12-.81.16-1.43.34-1.84.53-.25-1.04-.47-1.79-.64-2.24-.17-.41-.31-.74-.43-.99-.11-.22-.31-.4-.62-.54.09-.18.33-.85.73-2.02Z" style="fill: #ff7e5f; stroke-width: 0px;"/>
      <path d="M34.4,72.26l1.43-1.21,1.71.13c.55.05.94.18,1.17.41.24.24.36.49.36.77,0,.12-.02.28-.05.48-.05.23-.1.57-.15,1.02-.58.3-1.02.48-1.32.53-.3.05-.6.08-.88.08-.11,0-.24-.01-.39-.03.41.52.82.77,1.21.77.47,0,.88-.17,1.26-.53h.05c-.42,1.32-1.21,1.98-2.35,1.98-.59,0-1.02-.08-1.29-.25-.27-.17-.47-.4-.61-.72-.14-.3-.22-.88-.22-1.73l.03-1.08.04-.62ZM36.32,72.32l-.17,1.55c.37,0,.76-.01,1.19-.04,0-.28.01-.41.01-.4,0-.36-.1-.63-.29-.81-.19-.19-.44-.29-.75-.3Z" style="fill: #ff7e5f; stroke-width: 0px;"/>
      <path d="M40.26,68.8l1.24-.32.94-.25-.27,4.68-.1,1.84c.31.22.67.45,1.06.68v.04c-.5.47-.93.93-1.27,1.39-.58-.12-1.02-.38-1.31-.76s-.43-.9-.43-1.55c0-.26.01-.68.04-1.27.03-.57.06-2.07.09-4.49Z" style="fill: #ff7e5f; stroke-width: 0px;"/>
      <path d="M48.6,71.21l-.34.58c.32.1.58.3.77.62.2.32.3.71.3,1.17s-.09.87-.26,1.25c-.18.38-.37.66-.56.83-.2.18-.55.4-1.05.64-.09.04-.21.12-.37.23-.12.09-.23.16-.32.21-.83,0-1.58-.24-2.25-.7-.68-.45-1.02-1.02-1.02-1.7,0-1.12.77-2.19,2.32-3.21.71.06,1.31.1,1.8.1.36,0,.69,0,.98-.03ZM45.87,72.23c-.22.38-.34.77-.34,1.17,0,1.1.56,1.77,1.68,2.01.11-.42.16-.84.16-1.24,0-.65-.15-1.12-.46-1.4-.3-.28-.65-.46-1.04-.53Z" style="fill: #ff7e5f; stroke-width: 0px;"/>
      <path d="M49.86,71.51c.64-.11,1.11-.19,1.42-.24.3-.06.59-.12.86-.19.07.45.11.82.13,1.11.35-.22.65-.42.9-.62.25-.2.46-.39.63-.58.58.16,1.04.39,1.4.69.35.3.52.82.52,1.53,0,1.27-.6,2.38-1.79,3.34l-.84-.37-.47-.2c-.38,1.6-.65,2.87-.8,3.82l-1.76-.16c.02-.2.06-.62.11-1.28.06-.65.09-1.23.11-1.74.02-.5.03-.92.03-1.24,0-1.82-.15-3.11-.46-3.87ZM52.26,73.13c.04.26.06.5.06.74v.8c.29.12.69.24,1.17.36.03-.23.05-.45.05-.66,0-.99-.17-1.65-.51-1.98-.26.27-.52.52-.78.74Z" style="fill: #ff7e5f; stroke-width: 0px;"/>
      <path d="M56.21,71.51c.64-.11,1.11-.19,1.42-.24.3-.06.59-.12.86-.19.07.45.11.82.13,1.11.35-.22.65-.42.9-.62.25-.2.46-.39.63-.58.58.16,1.04.39,1.4.69.35.3.52.82.52,1.53,0,1.27-.6,2.38-1.79,3.34l-.84-.37-.47-.2c-.38,1.6-.65,2.87-.8,3.82l-1.76-.16c.02-.2.06-.62.11-1.28.06-.65.09-1.23.11-1.74.02-.5.03-.92.03-1.24,0-1.82-.15-3.11-.46-3.87ZM58.62,73.13c.04.26.06.5.06.74v.8c.29.12.69.24,1.17.36.03-.23.05-.45.05-.66,0-.99-.17-1.65-.51-1.98-.26.27-.52.52-.78.74Z" style="fill: #ff7e5f; stroke-width: 0px;"/>
      <path d="M63.03,72.26l1.43-1.21,1.71.13c.55.05.94.18,1.17.41.24.24.36.49.36.77,0,.12-.02.28-.05.48-.05.23-.1.57-.15,1.02-.58.3-1.02.48-1.32.53-.3.05-.6.08-.88.08-.11,0-.24-.01-.39-.03.41.52.82.77,1.21.77.47,0,.88-.17,1.26-.53h.05c-.42,1.32-1.21,1.98-2.35,1.98-.59,0-1.02-.08-1.29-.25-.27-.17-.47-.4-.61-.72-.14-.3-.22-.88-.22-1.73l.03-1.08.04-.62ZM64.94,72.32l-.17,1.55c.37,0,.76-.01,1.19-.04,0-.28.01-.41.01-.4,0-.36-.1-.63-.29-.81-.19-.19-.44-.29-.75-.3Z" style="fill: #ff7e5f; stroke-width: 0px;"/>
      <path d="M68.84,71.43c.5-.03,1.26-.2,2.29-.51-.06.14-.11.43-.18.87-.04.26-.09.56-.15.89-.06.34-.1.65-.1.91s.05.55.16.8c.11.28.26.61.44.96.39-.31.67-.58.84-.81,0-.12,0-.36,0-.71,0-1.18-.05-2.04-.16-2.58.17.03.32.04.46.04.53,0,1.14-.06,1.83-.17-.04.65-.06,1.45-.06,2.39,0,.55.02,1.46.06,2.76-.24.04-.71.13-1.42.27l-.88.17c.08-.4.11-.77.11-1.1-.33.16-.87.5-1.62,1.01-.59-.15-.97-.28-1.12-.37-.17-.09-.32-.28-.48-.56-.15-.29-.23-.7-.23-1.23,0-1.05.06-2.06.18-3.04Z" style="fill: #ff7e5f; stroke-width: 0px;"/>
      <path d="M75.75,72.94l.04-1.83,1.92.18.11,1.47c.1-.29.19-.57.27-.84.06-.22.13-.4.21-.52.07-.12.19-.22.36-.31.17-.09.36-.13.6-.13.26,0,.55.06.87.18l-.21.81c-.11.44-.24.92-.4,1.45-.51-.33-.85-.53-1.03-.58-.34.44-.54.78-.6,1.01.03.38.05.67.08.88.38.14.72.2,1.01.2-.18.5-.4,1.04-.65,1.64-.88,0-1.42-.05-1.62-.16-.21-.1-.42-.28-.65-.52-.23-.25-.34-.72-.34-1.42,0-.46,0-.96.03-1.5Z" style="fill: #ff7e5f; stroke-width: 0px;"/>
      <path d="M99.9,76.41l-.92.7c.63-1.52,1.34-3.06,2.13-4.61.29-.58.44-1.07.44-1.45,0-.28-.07-.53-.21-.73-.14-.2-.46-.3-.95-.3-.18.5-.29.84-.33,1-.05.21-.1.55-.16,1.02-.08.61-.16,1.07-.23,1.37-.08.31-.24.76-.48,1.35-.28.66-.74,1.68-1.4,3.05l-2.95,1.75-.97-2.56.06-3.88c-.39.39-1.15,1.32-2.27,2.79-.56.73-1.03,1.37-1.42,1.92-.39.55-.68,1-.89,1.37l-2.09.35c.02-1.13.08-2.25.2-3.35.09-.86.14-1.51.14-1.93,0-.67-.08-1.5-.25-2.49-.33-.23-.72-.45-1.18-.66-.46-.21-.96-.38-1.49-.54.05-.08.3-.43.76-1.08.45-.64.8-1.12,1.03-1.45.88.19,1.61.48,2.18.84.17.11.35.25.55.42.2.18.4.38.59.61s.38.46.56.71l-.84,3.37c-.19.75-.44,2.01-.77,3.8l2.17-2.51,1.33-1.51c.13-.14.28-.32.46-.54.18-.22.37-.45.57-.7.2-.25.37-.46.51-.63s.31-.38.5-.62l2.01-.78.83,6.44c.11-.28.36-1.07.76-2.37.17-.54.29-.92.36-1.13s.21-.59.4-1.14c.26-.72.5-1.3.71-1.74.19-.41.42-.83.69-1.26.25-.39.48-.69.71-.89.22-.2.37-.32.43-.35.06-.03.2-.04.42-.04.5,0,.92.13,1.27.39.35.26.52.6.52,1.03s-.1.84-.29,1.26c-.19.44-.6,1.15-1.22,2.15-.29.46-.56.89-.79,1.29s-.39.65-.46.77c-.22.39-.46.89-.71,1.5Z" style="fill: #ff7e5f; stroke-width: 0px;"/>
      <path d="M103.36,72.26l1.43-1.21,1.71.13c.55.05.94.18,1.17.41.24.24.36.49.36.77,0,.12-.02.28-.05.48-.05.23-.09.57-.15,1.02-.58.3-1.02.48-1.32.53-.3.05-.6.08-.88.08-.11,0-.24-.01-.39-.03.42.52.82.77,1.21.77.47,0,.88-.17,1.26-.53h.05c-.42,1.32-1.21,1.98-2.35,1.98-.59,0-1.02-.08-1.29-.25-.27-.17-.47-.4-.61-.72-.14-.3-.22-.88-.22-1.73l.03-1.08.04-.62ZM105.28,72.32l-.16,1.55c.37,0,.76-.01,1.19-.04,0-.28.01-.41.01-.4,0-.36-.1-.63-.29-.81-.2-.19-.45-.29-.75-.3Z" style="fill: #ff7e5f; stroke-width: 0px;"/>
      <path d="M109,70.6v-1.87l.84-.21c.5-.12.91-.24,1.22-.34,0,.08,0,.15,0,.2v1.16c0,.71.07,1.51.2,2.41.25-.24.48-.51.7-.83.62.05,1.09.17,1.43.36.33.19.55.45.67.77.11.33.17.78.17,1.35,0,.6-.06,1.08-.18,1.42-.12.33-.35.65-.67.96-.31.31-.62.52-.93.63l-1.4-.81c-.11.31-.19.52-.25.62l-2.06.56c.18-.76.28-1.21.3-1.37.02-.13.03-.97.03-2.52,0-.26,0-.63-.03-1.12-.02-.54-.03-.99-.03-1.37ZM111.63,72.31c-.19.38-.36.64-.5.78,0,.16,0,.37,0,.64,0,.27-.01.53-.02.76.32.14.7.28,1.15.41.03-.16.04-.31.04-.45,0-.85-.22-1.56-.67-2.15Z" style="fill: #ff7e5f; stroke-width: 0px;"/>
      <path d="M134.66,68.67c.22.96.34,1.78.36,2.47-.8-.38-1.42-.64-1.85-.75-.21-.06-.43-.11-.67-.14s-.47-.05-.69-.05c-.28,1.52-.58,2.73-.88,3.62,1.51.03,2.75.14,3.7.34l-1.56,1.05-.74-.04c-.26,0-.92.07-1.97.2-.43,1.02-1.25,2.04-2.44,3.05-1.2,1.02-2.4,1.53-3.61,1.53-.84,0-1.73-.22-2.67-.65-.96-.43-1.71-1.05-2.27-1.85.38-.82.64-1.43.77-1.85.36.28.76.54,1.19.76s.91.43,1.45.62c1.02.35,1.91.52,2.68.52.55,0,1.15-.1,1.82-.3.66-.19,1.14-.42,1.45-.68.3-.25.57-.6.82-1.07-1.05.09-2.08.14-3.1.14l1.66-1.73c.75-.05,1.39-.07,1.9-.07.24-1.02.45-2.27.62-3.73.63-.76,1.44-1.44,2.46-2.04.62.06,1.14.27,1.57.64Z" style="fill: #ff7e5f; stroke-width: 0px;"/>
      <path d="M135.68,72.94l.04-1.83,1.92.18.11,1.47c.1-.29.19-.57.27-.84.06-.22.13-.4.21-.52.07-.12.19-.22.36-.31.17-.09.36-.13.6-.13.26,0,.55.06.87.18l-.21.81c-.11.44-.24.92-.4,1.45-.51-.33-.85-.53-1.03-.58-.34.44-.54.78-.6,1.01.03.38.05.67.08.88.38.14.72.2,1.01.2-.18.5-.4,1.04-.65,1.64-.88,0-1.42-.05-1.62-.16-.21-.1-.42-.28-.65-.52-.23-.25-.34-.72-.34-1.42,0-.46,0-.96.03-1.5Z" style="fill: #ff7e5f; stroke-width: 0px;"/>
      <path d="M145.27,71.21l-.34.58c.32.1.58.3.77.62.2.32.3.71.3,1.17s-.09.87-.26,1.25c-.18.38-.37.66-.56.83-.2.18-.55.4-1.05.64-.09.04-.21.12-.37.23-.12.09-.23.16-.32.21-.82,0-1.58-.24-2.25-.7-.68-.45-1.02-1.02-1.02-1.7,0-1.12.77-2.19,2.32-3.21.71.06,1.3.1,1.8.1.36,0,.69,0,.98-.03ZM142.55,72.23c-.22.38-.34.77-.34,1.17,0,1.1.56,1.77,1.68,2.01.11-.42.16-.84.16-1.24,0-.65-.15-1.12-.46-1.4-.3-.28-.65-.46-1.04-.53Z" style="fill: #ff7e5f; stroke-width: 0px;"/>
      <path d="M148.45,71.23l.61-.18v.83c.12-.07.33-.19.63-.37.1-.05.2-.11.3-.18l.54-.32c.39.06.69.12.9.2.2.08.36.2.49.36.13.16.21.32.26.48.04.14.06.38.06.72,0,.4-.04.87-.11,1.41-.08.58-.12,1.07-.13,1.49l-1.17.75-.18.12c-.34.23-.62.39-.83.48.25-1.17.37-2.09.37-2.75,0-.8-.18-1.5-.53-2.11-.01.02-.09.09-.23.23l-.11.13-.26.26.03,3.65c-.69.02-1.41.12-2.15.3,0-.22,0-.37,0-.44,0-.26.01-.42.01-.47v-.15c-.01-.18-.02-.3-.02-.37v-1.5c0-.76-.01-1.44-.04-2.04.06-.02.12-.04.19-.06.07-.02.15-.05.24-.08s.19-.06.29-.1l.82-.28Z" style="fill: #ff7e5f; stroke-width: 0px;"/>
      <path d="M153.76,70.98v-.51s.25-.03.6-.06c.6-.06,1.04-.12,1.33-.16,0,.07,0,.14,0,.22,0,.14-.01.36-.04.67.13.01.4.02.81.02.28,0,.46,0,.55-.02-.11.69-.19,1.09-.22,1.21-.28.04-.67.07-1.17.09-.03.63-.04,1.05-.04,1.28,0,.37.09.66.26.88.17.21.46.38.88.51l-1.1,1.66c-1.38-.38-2.08-1.1-2.08-2.14,0-.17.03-.51.09-1,.06-.51.09-.86.1-1.03-.19,0-.41.03-.65.07l.67-1.15v-.53Z" style="fill: #ff7e5f; stroke-width: 0px;"/>
      <path d="M157.81,72.26l1.43-1.21,1.71.13c.55.05.94.18,1.17.41.24.24.36.49.36.77,0,.12-.02.28-.05.48-.05.23-.09.57-.15,1.02-.58.3-1.02.48-1.32.53-.3.05-.6.08-.88.08-.11,0-.24-.01-.39-.03.42.52.82.77,1.21.77.47,0,.88-.17,1.26-.53h.05c-.42,1.32-1.21,1.98-2.35,1.98-.59,0-1.02-.08-1.29-.25-.27-.17-.47-.4-.61-.72-.14-.3-.22-.88-.22-1.73l.03-1.08.04-.62ZM159.73,72.32l-.16,1.55c.37,0,.76-.01,1.19-.04,0-.28.01-.41.01-.4,0-.36-.1-.63-.29-.81-.2-.19-.45-.29-.75-.3Z" style="fill: #ff7e5f; stroke-width: 0px;"/>
      <path d="M164.81,71.23l.61-.18v.83c.12-.07.33-.19.63-.37.1-.05.2-.11.3-.18l.54-.32c.39.06.69.12.9.2.2.08.36.2.49.36.13.16.21.32.26.48.04.14.06.38.06.72,0,.4-.04.87-.11,1.41-.08.58-.12,1.07-.13,1.49l-1.17.75-.18.12c-.34.23-.62.39-.83.48.25-1.17.37-2.09.37-2.75,0-.8-.18-1.5-.53-2.11-.01.02-.09.09-.23.23l-.11.13-.26.26.03,3.65c-.69.02-1.41.12-2.15.3,0-.22,0-.37,0-.44,0-.26.01-.42.01-.47v-.15c-.01-.18-.02-.3-.02-.37v-1.5c0-.76-.01-1.44-.04-2.04.06-.02.12-.04.19-.06.07-.02.15-.05.24-.08s.19-.06.29-.1l.82-.28Z" style="fill: #ff7e5f; stroke-width: 0px;"/>
      <path d="M175.09,76.41l-2.23.41c0-.14,0-.29,0-.48,0-.68-.05-1.35-.16-2.02-.14.27-.44.65-.88,1.14-.47.52-.82.93-1.04,1.22-.43-.13-.79-.26-1.07-.39-.11-.65-.17-1.37-.17-2.16,0-.48.07-.89.21-1.23.14-.34.39-.69.73-1.06.34-.37.71-.68,1.11-.95.28.01.69.09,1.24.24.03-.91.05-1.76.05-2.55,1.23-.23,1.97-.37,2.23-.43-.15,1.71-.23,3.55-.23,5.55,0,.49.02.97.05,1.43s.08.88.15,1.26ZM171.47,72.31l.06,2.67s.04-.04.06-.06c.02-.02.03-.04.05-.05.03-.05.07-.12.12-.2.05-.08.1-.16.14-.23l.98-1.72c-.4-.19-.87-.32-1.42-.41Z" style="fill: #ff7e5f; stroke-width: 0px;"/>
      <path d="M181.74,72.04l1.04-1.82c1.07-.81,2.16-1.38,3.28-1.71,1.12-.33,2.09-.49,2.91-.49.65,0,1.27.14,1.87.42.61.28,1.06.64,1.36,1.07.3.44.44.83.44,1.19,0,.41-.16.89-.49,1.46-.33.58-1.01,1.14-2.03,1.69-1.03.56-2.31.96-3.83,1.19,1.28.76,2.27,1.58,2.98,2.46-.08.3-.38,1.11-.88,2.43-.32-.29-.66-.59-1.02-.9-.36-.31-.73-.62-1.11-.94s-1.03-.85-1.96-1.6c-1.02,1.45-1.82,2.17-2.41,2.17-.33,0-.69-.21-1.09-.64-.11-.12-.25-.24-.41-.36.09-.19.24-.47.44-.84.17-.3.3-.55.39-.75l1.73.89c.34-.4.79-.96,1.33-1.7.49-.67,1.02-1.44,1.59-2.32l1.75-2.73h-.48c-.4-.01-.82.03-1.25.11-.43.08-.88.2-1.35.35-.95.31-1.89.77-2.83,1.37ZM189.1,70.48c-.71.73-1.79,2.03-3.22,3.89,1.36-.15,2.8-1.07,4.33-2.77-.21-.48-.58-.85-1.11-1.12Z" style="fill: #ff7e5f; stroke-width: 0px;"/>
      <path d="M193.01,72.26l1.43-1.21,1.71.13c.55.05.94.18,1.17.41.24.24.36.49.36.77,0,.12-.02.28-.05.48-.05.23-.09.57-.15,1.02-.58.3-1.02.48-1.32.53-.3.05-.6.08-.88.08-.11,0-.24-.01-.39-.03.42.52.82.77,1.21.77.47,0,.88-.17,1.26-.53h.05c-.42,1.32-1.21,1.98-2.35,1.98-.59,0-1.02-.08-1.29-.25-.27-.17-.47-.4-.61-.72-.14-.3-.22-.88-.22-1.73l.03-1.08.04-.62ZM194.92,72.32l-.16,1.55c.37,0,.76-.01,1.19-.04,0-.28.01-.41.01-.4,0-.36-.1-.63-.29-.81-.2-.19-.45-.29-.75-.3Z" style="fill: #ff7e5f; stroke-width: 0px;"/>
      <path d="M200.34,71.06c.06.02.45.09,1.15.22.63.11,1.05.2,1.26.27.2.07.39.19.57.34s.31.38.4.66c.09.28.13.66.13,1.14l-.03,1.87c0,.22.02.48.06.78-.39.06-1.12.25-2.17.54.08-.58.11-1.38.11-2.39-.07.12-.28.37-.63.75-.35.38-.84.9-1.48,1.56-.5-.13-.88-.26-1.14-.38-.02-.16-.05-.41-.1-.75-.07-.53-.11-1.01-.11-1.43,0-.62.13-1.14.39-1.56.25-.42.78-.95,1.59-1.61ZM200.32,72.59l.14,2.5c.23-.26.46-.55.69-.87.23-.32.42-.63.58-.91-.23-.33-.7-.57-1.42-.71Z" style="fill: #ff7e5f; stroke-width: 0px;"/>
      <path d="M206.59,70.98c.85.02,1.47.08,1.83.17.39.1.72.3.98.62.26.32.39.73.39,1.22-.66.11-1.28.28-1.87.5-.1-.47-.35-.76-.76-.86-.08.77-.12,1.29-.12,1.58,0,.21.06.38.18.52.12.14.32.25.58.34.28.1.52.15.75.15.36,0,.69-.21,1.01-.62l.03.03c-.25.69-.55,1.19-.91,1.51-.36.32-.9.48-1.61.48-.53,0-.96-.11-1.29-.32-.32-.22-.54-.48-.65-.79-.11-.31-.17-.73-.17-1.24s.02-1.2.06-1.99c.49-.46,1.01-.88,1.57-1.28Z" style="fill: #ff7e5f; stroke-width: 0px;"/>
      <path d="M211.15,70.98v-.51s.25-.03.6-.06c.6-.06,1.04-.12,1.33-.16,0,.07,0,.14,0,.22,0,.14-.01.36-.04.67.13.01.4.02.81.02.28,0,.46,0,.55-.02-.11.69-.19,1.09-.22,1.21-.28.04-.67.07-1.17.09-.03.63-.04,1.05-.04,1.28,0,.37.09.66.26.88.17.21.46.38.88.51l-1.1,1.66c-1.38-.38-2.08-1.1-2.08-2.14,0-.17.03-.51.09-1,.06-.51.09-.86.1-1.03-.19,0-.41.03-.65.07l.67-1.15v-.53Z" style="fill: #ff7e5f; stroke-width: 0px;"/>
    </g>
  </g>
</svg>